<svg width="335" height="308" viewBox="0 0 335 308" fill="none" xmlns="http://www.w3.org/2000/svg">
<path d="M247.8 176.9C243.8 162.9 238.1 149.3 231.9 137.1C211.8 97.5 186.9 55.2 150 29C121 8.40001 80.8 1.00002 47.9 17.7C10.5 36.6 -9.89997 89.5 5.90003 128.4C22.9 162.8 78.2 165.3 86.6 204.2C89.8 219 85.8 235.8 89.9 250.9C93.2 262.9 100.6 274.3 109.4 282.9C127.7 300.6 154.1 307.1 179 302.8C203.5 298.5 226.4 284.5 240.1 263.6C257.1 237.7 256.1 206.2 247.8 176.9Z" fill="url(#paint0_linear_1_78)"/>
<path opacity="0.56" d="M305.3 165C304 157.8 304.9 150.3 310.6 141.6C316.8 132.1 325.4 124.3 330.4 114.1C338.7 97.2 333.5 75.9 321.9 61.8C296.2 30.8 245.1 33.7 210.2 43.3C174.7 53.1 140.7 72.7 113.2 97.1C93.5 114.5 74.7 133.2 57.7 153.2C47.4 165.3 14.8 199.8 30.4 217.4C35.1 222.7 43.0001 224.3 49.8001 225C60.1001 226.2 68.2 227.3 77.5 232.6C93.2 241.6 105.8 253.3 124.6 255C144.3 256.7 163.8 250.6 183.5 250.4C199 250.2 214.2 253.8 228.8 258.7C242.5 263.3 254.2 270.4 268.9 268.5C285.8 266.3 301.5 255.2 310.9 241.2C318.9 229.2 322.4 213.5 318.5 199.4C314.6 186.5 307.3 176.1 305.3 165Z" fill="#FFDD95"/>
<path d="M99.3 54.7C122.3 47.6 146.2 59.6 169.3 54.7C199.3 48.3 193.2 6.20001 221.9 0.600006C284 2.30001 296 89.6 289.3 136.2C287.6 147.7 284.1 157 274.5 164.4C244.8 187 205.5 173.5 172.4 185C157.6 190.2 149 201 145.6 216C141.8 232.7 141.7 252.6 126.8 263.9C103 281.9 77 256.8 71.9 232.9C61.5 205.5 79.8 182.8 91.5 159.8C110.8 124.6 44.6 71.6 99.3 54.7Z" fill="url(#paint1_linear_1_78)"/>
<path d="M188.5 15.2C187.9 12.4 184.8 10.1 182 10.2C176.5 10.4 173.2 15.5 168.8 18.2C164.2 21 159.9 23.6 154.5 24.7C149.9 25.7 145.2 25.7 140.6 24.5C134.5 22.9 129.3 19.3 122.9 19C117 18.8 111.8 25.3 113.8 31C119.5 47.5 144.3 50.8 159.1 46.8C166.3 44.8 174.2 40.9 179.4 35.5C184.3 30.6 190 22.5 188.5 15.2Z" fill="url(#paint2_linear_1_78)"/>
<path d="M193 192.3C180.9 187.5 165.7 197.2 159.3 206.9C151.9 218 147.9 237.5 157.5 248.4C162.9 254.6 171.5 250.3 174.1 244C175.8 239.9 174.9 235.5 175.3 231.2C175.7 227.1 176.7 222.7 178.8 219.1C180.5 216.1 182.7 213.1 185.2 210.7C188 208.2 191.6 206.9 194.7 204.8C199.9 201.4 198.5 194.5 193 192.3Z" fill="url(#paint3_linear_1_78)"/>
<path d="M84.4 122.4C84.4 122 84.3 121.7 84.3 121.3C83.6 117.4 79.8999 114.5 76.0999 114.4C71.0999 114.2 67.1999 118.5 66.9999 123.4C66.7999 128.7 71.3999 133.1 76.5999 133.1C78.0999 133.1 79.9 132.7 81.3 131.9C83.7 130.5 84.8999 128 84.9999 125.3C84.8999 124.2 84.8 123.3 84.4 122.4Z" fill="url(#paint4_linear_1_78)"/>
<path d="M72.5999 145.5C70.6999 144.7 68.7 144.4 66.9 144.5C64 143.9 60.7999 144.4 57.9999 146C54.5999 147.9 52.1999 151.1 51.0999 154.6C49.9999 157.6 49.8 160.9 50.8 164C53.1 171.8 61.5 176.7 69.4 174.6C74.8 173.1 79.1999 168.2 80.4999 162.8C81.9999 156.1 79.2999 148.4 72.5999 145.5Z" fill="url(#paint5_linear_1_78)"/>
<path d="M59 122.8C57.9 121.2 56.5 119.9 54.6 119.4C53 119 52 119.1 50.5 119.4C48.9 119.7 47.1 120.8 46 122C44.8 123.3 44.4 124.2 43.7 125.8C43.4 126.7 43.3 127.6 43.3 128.5C43.3 129.5 43.5 130.5 43.9 131.4C44.2 132.3 44.7 133.1 45.5 133.8C46.2 134.5 47 135.1 47.9 135.4C48.8 135.9 49.8 136.1 50.8 136C52.7 135.9 54.7 135.3 56.1 133.9C56.3 133.8 56.5 133.6 56.7 133.5C57 133.2 57.4 133 57.6 132.7C58 132.3 58.5 131.6 58.8 131.1C59 130.7 59.2 130.3 59.3 130C59.5 129.6 59.6 129.3 59.7 128.8C60.2 126.8 60.2 124.6 59 122.8Z" fill="url(#paint6_linear_1_78)"/>
<path d="M281.8 186.7C281.5 185.4 280.9 184.3 280 183.3C279.3 182.2 278.4 181.4 277.2 180.8C276.8 180.6 276.4 180.4 276 180.2C275.2 179.6 274.3 179.2 273.3 178.9C271.5 178.4 269.5 178.4 267.6 178.9C265.3 179.5 263.5 180.8 262.1 182.7C261.6 183.4 261.4 183.7 261.1 184.1C259.5 186.5 259.3 189.5 259.9 192.3C260.4 194.5 262.1 196.4 264 197.6C264.8 198.1 265.5 198.3 266.5 198.7C266.7 198.8 266.9 198.8 267.1 198.9C267.9 199.1 269 199.3 269.9 199.3C270.4 199.3 270.9 199.3 271.4 199.2C272.5 199.3 273.6 199.2 274.8 198.9C275.6 198.6 276.4 198.2 277.2 197.9C278.7 197 279.9 195.8 280.7 194.4C281.4 193.3 281.8 192 281.9 190.7C282.2 189.3 282.2 188 281.8 186.7Z" fill="url(#paint7_linear_1_78)"/>
<path d="M298.6 174.8C298.4 174.1 298.1 173.4 297.6 172.9C297.2 172.3 296.7 171.8 296 171.4C295.1 170.9 294.1 170.6 293.1 170.6C292.8 170.6 292.6 170.7 292.3 170.7C292 170.7 291.8 170.8 291.5 170.8C291.5 170.8 291.5 170.8 291.4 170.8C290.9 171 290.5 171.2 290 171.4H289.9C289.4 171.7 289 172 288.6 172.4C287.7 173.3 287.5 173.9 287 175.1C286.8 175.9 286.7 176.7 286.9 177.4C286.9 178.2 287.2 178.9 287.6 179.6C288 180.3 288.5 180.8 289.1 181.3C289.7 181.8 290.3 182.2 291.1 182.4C291.6 182.5 292.1 182.5 292.7 182.6C293.8 182.6 294.8 182.3 295.7 181.8C295.9 181.6 296.1 181.5 296.4 181.3C296.4 181.3 296.5 181.3 296.5 181.2C296.6 181.1 296.8 181 296.9 180.9C297.3 180.5 297.6 180.1 297.8 179.7C298.2 179.2 298.4 178.6 298.5 178C298.9 176.8 298.9 175.8 298.6 174.8Z" fill="url(#paint8_linear_1_78)"/>
<path d="M298.8 193.5C298.5 192.4 298 191.5 297.2 190.7C296.8 190.4 296.3 190 295.9 189.7C294.9 189.1 293.8 188.8 292.7 188.8C291.8 188.8 291 188.9 290.3 189.3C289.5 189.6 288.8 190 288.3 190.6C287.7 191.2 287.2 191.9 287 192.6C286.6 193.4 286.4 194.2 286.5 195L286.7 196.7C287 197.8 287.5 198.7 288.3 199.5C288.7 199.8 289.2 200.2 289.6 200.5C290.6 201.1 291.7 201.4 292.8 201.4C293.7 201.4 294.5 201.3 295.2 200.9C296 200.6 296.7 200.2 297.2 199.6C297.8 199 298.3 198.3 298.5 197.6C298.9 196.8 299.1 196 299 195.2C299 194.6 298.9 194 298.8 193.5Z" fill="url(#paint9_linear_1_78)"/>
<path d="M328.6 137.1C314.5 134.2 310 158.1 317.6 166.3C321.6 170.6 328.2 168 329.9 163.1C331.3 159.1 330.7 154.8 332 150.7C332.7 148.5 333.7 146.7 333.6 144.3C333.5 141.3 331.7 137.7 328.6 137.1Z" fill="url(#paint10_linear_1_78)"/>
<path d="M307 33.2C301.5 26.4 287.8 24.8 279.9 27.1C275.2 28.5 276.2 35.3 281 35.5C284.8 35.7 288.4 35.7 292.1 37C295.6 38.3 298.4 40.7 301.9 41.9C307.3 43.9 309.9 36.8 307 33.2Z" fill="url(#paint11_linear_1_78)"/>
<path d="M286 16.1C284.5 13.7 281.7 14.5 279.8 15.8C277.4 17.5 275.1 19.3 272.8 21.1C270.2 23 272.4 26.9 275.4 25.5C277.9 24.3 280.4 23.1 283 21.9C285 20.9 287.6 18.7 286 16.1Z" fill="url(#paint12_linear_1_78)"/>
<path d="M67.6 234.1C67.5 234 67.5 234.1 67.6 234.1C67.5 233.8 67.2999 233.5 67.1999 233.3V233.2C67.0999 233 66.8999 232.7 66.6999 232.5C66.1999 231.8 65.6 231.2 64.9 230.8C64.4 230.6 63.9 230.4 63.4 230.1C62.5 229.8 61.7 229.8 60.8 230C60.4 230 60.1 230.1 59.8 230.2C59.7 230.2 59.5 230.2 59.4 230.3C59.3 230.3 59.2999 230.3 59.1999 230.4C58.3999 230.6 57.7 231 57.1 231.5C56.4 231.9 55.9 232.5 55.5 233.2C55.2 233.7 55 234.2 54.8 234.8C54.6 235.4 54.6 236.1 54.5 236.8C54.4 237.6 54.6 238.5 54.8 239.3C55 239.8 55.2 240.3 55.4 240.8C55.8 241.5 56.3 242.1 57 242.5C57.4 242.9 57.8 243.1 58.4 243.3C58.9 243.5 59.3 243.7 59.9 243.8C61.1 244.2 62.3999 244.3 63.6999 243.9C64.5999 243.7 65.3 243.3 66 242.7C66.7 242.2 67.2999 241.6 67.6999 240.8C68.2999 239.8 68.6 238.6 68.6 237.4C68.5 236.2 68.2 235.1 67.6 234.1Z" fill="url(#paint13_linear_1_78)"/>
<path d="M67 258.1C67 257.7 67 257.4 66.9 257C66.7 256.3 66.4 255.8 65.9 255.3C65.4 254.8 64.8 254.4 64.1 254.3C63.7 254.2 63.4 254.1 63 254.2C62.8 254.2 62.1 254.3 61.9 254.4C61.4 254.5 60.9 254.8 60.5 255.1C60.2 255.3 60 255.5 59.8 255.8C59.4 256.2 59.2 256.7 59.1 257.2C59.1 257.6 59 257.9 59 258.3C59 258.7 59.1 259 59.1 259.4C59.2 259.9 59.5 260.4 59.8 260.8C60 261.1 60.2 261.3 60.5 261.5C60.9 261.9 61.4 262.1 61.9 262.2C62.6 262.4 63.3 262.4 64.1 262.2C64.6 262.1 65.1 261.8 65.5 261.5C65.8 261.3 66 261.1 66.2 260.8C66.6 260.4 66.8 259.9 66.9 259.4C66.9 258.9 66.9 258.5 67 258.1Z" fill="url(#paint14_linear_1_78)"/>
<path d="M47.6 243.1C46.5 242.1 45.3 241.5 43.8 241.5C43.1 241.5 42.4 241.6 41.7 242C41 242.2 40.5 242.6 40 243.1C39.5 243.6 39.1 244.2 38.9 244.8C38.6 245.4 38.4 246.1 38.4 246.9C38.5 248.3 38.9 249.7 40 250.7C41.1 251.7 42.3 252.3 43.8 252.3C44.5 252.3 45.2 252.2 45.9 251.8C46.6 251.6 47.1 251.2 47.6 250.7C48.1 250.2 48.5 249.6 48.7 249C49 248.4 49.2 247.7 49.2 246.9C49.1 245.5 48.6 244 47.6 243.1Z" fill="url(#paint15_linear_1_78)"/>
<path d="M250.5 278C250.2 277 249.7 276.2 249 275.4C248.4 274.8 247.5 274.3 246.7 274C246.6 274 246.6 274 246.5 273.9C246.1 273.8 245.6 273.8 245.2 273.7H245.1C243.4 273.8 241.6 274.6 240.8 276.2C240.5 276.8 240.2 277.4 240.1 278.1C239.9 279.2 239.6 280.4 240.1 281.4C240.3 281.8 240.4 282.2 240.6 282.6C240.9 283 241.1 283.3 241.4 283.7C241.8 284 242.1 284.2 242.5 284.5C243.1 284.9 243.7 285.1 244.4 285.1C244.9 285.2 245.3 285.2 245.8 285.1C246.3 285.1 246.7 285 247.1 284.7C247.5 284.6 247.9 284.4 248.2 284C248.4 283.9 248.5 283.8 248.6 283.6C249.1 283.3 249.6 282.8 249.9 282.3C250.1 281.9 250.3 281.5 250.3 281C250.3 280.9 250.4 280.8 250.4 280.7C250.4 280.6 250.4 280.6 250.5 280.5C250.6 280.2 250.7 279.6 250.7 279.2C250.6 279 250.6 278.4 250.5 278Z" fill="url(#paint16_linear_1_78)"/>
<path d="M271.5 285.6C271.3 284.8 270.9 284.1 270.3 283.5C270 283.2 269.6 282.9 269.3 282.7C268.7 282.2 268.1 281.8 267.3 281.6C267.1 281.5 266.8 281.5 266.5 281.5C266.2 281.4 266 281.4 265.7 281.4C265.2 281.5 264.8 281.5 264.3 281.6H264.2C263.3 281.8 262.4 282.4 261.7 283.1C261.4 283.5 261.1 283.8 260.9 284.2C260.8 284.4 260.7 284.7 260.6 284.9C260.5 285.1 260.4 285.3 260.3 285.6C260.2 286.1 260.2 286.5 260.1 287C260.1 287.3 260.1 287.5 260.2 287.8C260.2 288.1 260.2 288.3 260.3 288.6C260.5 289 260.7 289.5 260.8 289.9C260.9 290.1 261.1 290.3 261.2 290.5C261.7 291.2 261.8 291.4 262.7 291.9C263.1 292.2 263.6 292.4 264.1 292.5H264.2C264.7 292.6 265.2 292.6 265.6 292.7C265.9 292.7 266.1 292.7 266.4 292.6C266.7 292.6 266.9 292.5 267.2 292.5C267.6 292.3 268.1 292.1 268.5 292C268.7 291.9 268.9 291.8 269 291.6C269.3 291.4 269.8 291 270 290.8C270.2 290.6 270.3 290.4 270.5 290.2C271 289.6 271.3 289.2 271.5 288.3C271.7 287.3 271.7 286.4 271.5 285.6Z" fill="url(#paint17_linear_1_78)"/>
<path d="M256.2 295.4C255.6 294.8 254.9 294.3 254.1 294C253.3 293.6 252.5 293.4 251.6 293.4C250 293.2 248.4 293.5 247 294.3C245.4 295.2 244.3 296.7 243.7 298.5C243.5 299.3 243.5 299.7 243.5 300.3C243.5 300.8 243.6 301.5 243.8 302.1C243.9 302.5 244.1 302.9 244.3 303.3C244.5 303.9 244.8 304.4 245.3 304.9C245.4 305.2 245.6 305.4 245.8 305.6C246 305.8 246.3 306 246.5 306.1C246.9 306.5 247.4 306.8 248 307C248.9 307.4 249.5 307.6 250.7 307.6C251.2 307.6 252.1 307.5 252.6 307.4C252.7 307.4 252.7 307.4 252.8 307.4H252.9C253.3 307.3 254.2 306.9 254.6 306.7C254.6 306.7 254.7 306.7 254.7 306.6C255.1 306.4 255.8 305.8 256.1 305.5L256.2 305.4C256.4 305.2 257.1 304.2 257.3 304L257.4 303.9C257.6 303.6 258 302.6 258.1 302.3C258.2 302 258.2 301.5 258.2 301.3C258.2 301 258.3 300.6 258.3 300.3C258.1 298.4 257.5 296.6 256.2 295.4Z" fill="url(#paint18_linear_1_78)"/>
<defs>
<linearGradient id="paint0_linear_1_78" x1="0.630227" y1="156.358" x2="253.627" y2="156.358" gradientUnits="userSpaceOnUse">
<stop stop-color="#FC887B"/>
<stop offset="0.9959" stop-color="#FFDD95"/>
</linearGradient>
<linearGradient id="paint1_linear_1_78" x1="214.177" y1="224.532" x2="129.337" y2="40.3096" gradientUnits="userSpaceOnUse">
<stop stop-color="#86E3CE"/>
<stop offset="1" stop-color="#D0E6A5"/>
</linearGradient>
<linearGradient id="paint2_linear_1_78" x1="113.396" y1="29.3182" x2="188.773" y2="29.3182" gradientUnits="userSpaceOnUse">
<stop stop-color="#86E3CE"/>
<stop offset="1" stop-color="#D0E6A5"/>
</linearGradient>
<linearGradient id="paint3_linear_1_78" x1="151.835" y1="221.214" x2="197.931" y2="221.214" gradientUnits="userSpaceOnUse">
<stop stop-color="#86E3CE"/>
<stop offset="1" stop-color="#D0E6A5"/>
</linearGradient>
<linearGradient id="paint4_linear_1_78" x1="66.9397" y1="123.65" x2="84.8875" y2="123.65" gradientUnits="userSpaceOnUse">
<stop stop-color="#86E3CE"/>
<stop offset="1" stop-color="#D0E6A5"/>
</linearGradient>
<linearGradient id="paint5_linear_1_78" x1="50.1343" y1="159.732" x2="80.8399" y2="159.732" gradientUnits="userSpaceOnUse">
<stop stop-color="#86E3CE"/>
<stop offset="1" stop-color="#D0E6A5"/>
</linearGradient>
<linearGradient id="paint6_linear_1_78" x1="43.3234" y1="127.581" x2="60.0636" y2="127.581" gradientUnits="userSpaceOnUse">
<stop stop-color="#86E3CE"/>
<stop offset="1" stop-color="#D0E6A5"/>
</linearGradient>
<linearGradient id="paint7_linear_1_78" x1="259.703" y1="188.84" x2="282.135" y2="188.84" gradientUnits="userSpaceOnUse">
<stop stop-color="#FC887B"/>
<stop offset="0.9959" stop-color="#FFDD95"/>
</linearGradient>
<linearGradient id="paint8_linear_1_78" x1="286.847" y1="176.552" x2="298.795" y2="176.552" gradientUnits="userSpaceOnUse">
<stop stop-color="#FC887B"/>
<stop offset="0.9959" stop-color="#FFDD95"/>
</linearGradient>
<linearGradient id="paint9_linear_1_78" x1="286.328" y1="195.163" x2="299.048" y2="195.163" gradientUnits="userSpaceOnUse">
<stop stop-color="#FC887B"/>
<stop offset="0.9959" stop-color="#FFDD95"/>
</linearGradient>
<linearGradient id="paint10_linear_1_78" x1="313.923" y1="152.643" x2="333.645" y2="152.643" gradientUnits="userSpaceOnUse">
<stop stop-color="#FC887B"/>
<stop offset="0.9959" stop-color="#FFDD95"/>
</linearGradient>
<linearGradient id="paint11_linear_1_78" x1="276.825" y1="34.1797" x2="308.206" y2="34.1797" gradientUnits="userSpaceOnUse">
<stop stop-color="#FC887B"/>
<stop offset="0.9959" stop-color="#FFDD95"/>
</linearGradient>
<linearGradient id="paint12_linear_1_78" x1="271.603" y1="20.1717" x2="286.484" y2="20.1717" gradientUnits="userSpaceOnUse">
<stop stop-color="#FC887B"/>
<stop offset="0.9959" stop-color="#FFDD95"/>
</linearGradient>
<linearGradient id="paint13_linear_1_78" x1="54.4269" y1="237.052" x2="68.467" y2="237.052" gradientUnits="userSpaceOnUse">
<stop stop-color="#FC887B"/>
<stop offset="0.9959" stop-color="#FFDD95"/>
</linearGradient>
<linearGradient id="paint14_linear_1_78" x1="58.8629" y1="258.115" x2="66.9879" y2="258.115" gradientUnits="userSpaceOnUse">
<stop stop-color="#FC887B"/>
<stop offset="0.9959" stop-color="#FFDD95"/>
</linearGradient>
<linearGradient id="paint15_linear_1_78" x1="38.3562" y1="246.871" x2="49.1366" y2="246.871" gradientUnits="userSpaceOnUse">
<stop stop-color="#FC887B"/>
<stop offset="0.9959" stop-color="#FFDD95"/>
</linearGradient>
<linearGradient id="paint16_linear_1_78" x1="239.706" y1="279.556" x2="250.639" y2="279.556" gradientUnits="userSpaceOnUse">
<stop stop-color="#86E3CE"/>
<stop offset="1" stop-color="#D0E6A5"/>
</linearGradient>
<linearGradient id="paint17_linear_1_78" x1="260.031" y1="286.936" x2="271.639" y2="286.936" gradientUnits="userSpaceOnUse">
<stop stop-color="#86E3CE"/>
<stop offset="1" stop-color="#D0E6A5"/>
</linearGradient>
<linearGradient id="paint18_linear_1_78" x1="243.443" y1="300.536" x2="258.162" y2="300.536" gradientUnits="userSpaceOnUse">
<stop stop-color="#86E3CE"/>
<stop offset="1" stop-color="#D0E6A5"/>
</linearGradient>
</defs>
</svg>
